# xmcd CD database file
#
# Track frame offsets:
#	150
#	75722
#	110335
#	166608
#	198695
#	223314
#	232629
#	251600
#	261973
#
# Disc length: 4067 seconds
#
# Revision: 0
# Processed by: cddbd v1.5.1PL0 Copyright (c) Steve Scherf et al.
# Submitted via: CDex 1.51
#
DISCID=740fe109
DTITLE=Anaya - Relax
DYEAR=2001
DGENRE=New Age
TTITLE0=Titulos musicas - Tedeum
TTITLE1=Titulos musicas - Plenitude
TTITLE2=Titulos musicas - Skies
TTITLE3=Titulos musicas - Extase
TTITLE4=Self Music I
TTITLE5=Self Music II
TTITLE6=Self Music V
TTITLE7=Self Music XIII
TTITLE8=Overspace III
EXTD=YEAR: 2001
EXTT0=
EXTT1=
EXTT2=
EXTT3=
EXTT4=
EXTT5=
EXTT6=
EXTT7=
EXTT8=
PLAYORDER=
